<svg width="256" height="256" viewBox="0 0 128 128" fill="none" xmlns="http://www.w3.org/2000/svg">
    <rect width="128" height="128" fill="#E5E7EB"/>
    <mask id="mask0_57_6" style="mask-type:alpha" maskUnits="userSpaceOnUse" x="36" y="19" width="56" height="57">
        <rect x="36" y="19.5" width="56" height="56" fill="#D9D9D9"/>
    </mask>
    <g mask="url(#mask0_57_6)">
        <path d="M63.9998 60.3333C66.9165 60.3333 69.3957 59.3125 71.4373 57.2708C73.479 55.2292 74.4998 52.75 74.4998 49.8333C74.4998 46.9167 73.479 44.4375 71.4373 42.3958C69.3957 40.3542 66.9165 39.3333 63.9998 39.3333C61.0832 39.3333 58.604 40.3542 56.5623 42.3958C54.5207 44.4375 53.4998 46.9167 53.4998 49.8333C53.4998 52.75 54.5207 55.2292 56.5623 57.2708C58.604 59.3125 61.0832 60.3333 63.9998 60.3333ZM63.9998 55.6667C62.3665 55.6667 60.9859 55.1028 59.8582 53.975C58.7304 52.8472 58.1665 51.4667 58.1665 49.8333C58.1665 48.2 58.7304 46.8194 59.8582 45.6917C60.9859 44.5639 62.3665 44 63.9998 44C65.6332 44 67.0137 44.5639 68.1415 45.6917C69.2693 46.8194 69.8332 48.2 69.8332 49.8333C69.8332 51.4667 69.2693 52.8472 68.1415 53.975C67.0137 55.1028 65.6332 55.6667 63.9998 55.6667ZM45.3332 68.5C44.0498 68.5 42.9512 68.0431 42.0373 67.1292C41.1234 66.2153 40.6665 65.1167 40.6665 63.8333V35.8333C40.6665 34.55 41.1234 33.4514 42.0373 32.5375C42.9512 31.6236 44.0498 31.1667 45.3332 31.1667H52.6832L56.9998 26.5H70.9998L75.3165 31.1667H82.6665C83.9498 31.1667 85.0484 31.6236 85.9623 32.5375C86.8762 33.4514 87.3332 34.55 87.3332 35.8333V63.8333C87.3332 65.1167 86.8762 66.2153 85.9623 67.1292C85.0484 68.0431 83.9498 68.5 82.6665 68.5H45.3332ZM45.3332 63.8333H82.6665V35.8333H73.2165L68.9582 31.1667H59.0415L54.7832 35.8333H45.3332V63.8333Z" fill="#46434F"/>
    </g>
    <path d="M24.3789 77.8711C24.3789 78.6211 24.2852 79.3034 24.0977 79.918C23.9128 80.5326 23.5859 81.1042 23.1172 81.6328C22.651 82.1615 22.0078 82.6302 21.1875 83.0391L20.7773 82.4727C21.4987 82.1211 22.0703 81.7201 22.4922 81.2695C22.9167 80.8164 23.2174 80.3216 23.3945 79.7852C23.5716 79.2487 23.6602 78.6406 23.6602 77.9609V77.8711H24.3789ZM24.0977 78.4766H21.1836V77.8711H24.0977V78.4766ZM20.9336 80.4258L20.8242 79.7852L23.5938 79.6055V80.1758L20.9336 80.4258ZM26.1953 84.1562H25.457V77.1602H26.1953V84.1562ZM27.2812 80.5742H26.0039V79.957H27.2812V80.5742ZM30.6094 82.3203H27.8945V77.9492H30.6094V82.3203ZM28.5898 81.7305H29.9141V78.5391H28.5898V81.7305ZM33.6797 84.1602H32.9648V77.1602H33.6797V84.1602ZM31.8594 80.3789H30.2461V79.7734H31.8594V80.3789ZM32.2539 83.8164H31.5508V77.293H32.2539V83.8164ZM40.0234 84.1797H39.2891V77.1602H40.0234V84.1797ZM41.1523 80.5195H39.8555V79.8984H41.1523V80.5195ZM35.4297 81.8789C36.1276 81.8815 36.7214 81.8672 37.2109 81.8359C37.7031 81.8021 38.2005 81.7396 38.7031 81.6484L38.7773 82.2539C38.2617 82.3451 37.75 82.4089 37.2422 82.4453C36.737 82.4818 36.1328 82.5013 35.4297 82.5039H34.8633V81.8789H35.4297ZM38.0469 80.3672H35.5977V82.125H34.8633V79.7656H37.3125V78.3984H34.8477V77.793H38.0469V80.3672ZM47.8828 80.9453H41.4766V80.375H47.8828V80.9453ZM47.0938 82.9766H42.9844V83.7344H42.2422V82.4844H46.3594V81.9688H42.2344V81.4297H47.0938V82.9766ZM47.3125 84.0781H42.2422V83.5547H47.3125V84.0781ZM47.0742 78.8594H43.0352V79.5664H42.3008V78.3672H46.332V77.8672H42.2812V77.3438H47.0742V78.8594ZM47.1992 79.9141H42.3008V79.3945H47.1992V79.9141ZM53.9023 81.5742H53.1641V80.5195H53.9023V81.5742ZM51.9258 77.8828H55.168V77.2734H55.9023V79.5898H51.1914V77.2734H51.9258V77.8828ZM55.168 79.0234V78.4336H51.9258V79.0234H55.168ZM56.7344 80.707H50.3516V80.0977H56.7344V80.707ZM55.9258 82.9336H51.8555V83.7305H51.125V82.4023H55.1992V81.8633H51.1133V81.3086H55.9258V82.9336ZM56.1289 84.0938H51.125V83.5195H56.1289V84.0938ZM63.0938 84.1797H62.3594V77.1602H63.0938V84.1797ZM62.5312 80.4102H61.0781V79.7969H62.5312V80.4102ZM58.0742 81.8867C58.7591 81.8867 59.3346 81.8724 59.8008 81.8438C60.2695 81.8151 60.7435 81.7565 61.2227 81.668L61.2812 82.2852C60.7917 82.3711 60.3047 82.4297 59.8203 82.4609C59.3359 82.4896 58.7539 82.5065 58.0742 82.5117H57.5273V81.8867H58.0742ZM60.6641 80.3008H58.2656V82.082H57.5273V79.6992H59.9414V78.3984H57.5039V77.793H60.6641V80.3008ZM67.7305 82.8125H67.0039V81.1055H67.7305V82.8125ZM67.3711 77.5859C67.8659 77.5859 68.3099 77.6641 68.7031 77.8203C69.0964 77.974 69.4023 78.1927 69.6211 78.4766C69.8424 78.7578 69.9531 79.082 69.9531 79.4492C69.9531 79.8216 69.8424 80.1484 69.6211 80.4297C69.4023 80.7109 69.0964 80.9297 68.7031 81.0859C68.3099 81.2396 67.8659 81.3164 67.3711 81.3164C66.8737 81.3164 66.4284 81.2396 66.0352 81.0859C65.6445 80.9297 65.3385 80.7109 65.1172 80.4297C64.8958 80.1484 64.7852 79.8216 64.7852 79.4492C64.7852 79.082 64.8958 78.7578 65.1172 78.4766C65.3385 78.1927 65.6445 77.974 66.0352 77.8203C66.4284 77.6641 66.8737 77.5859 67.3711 77.5859ZM67.3711 78.1875C67.0143 78.1875 66.694 78.2396 66.4102 78.3438C66.1263 78.4479 65.9049 78.5964 65.7461 78.7891C65.5898 78.9792 65.5117 79.1992 65.5117 79.4492C65.5117 79.7018 65.5898 79.9245 65.7461 80.1172C65.9049 80.3099 66.125 80.4583 66.4062 80.5625C66.6875 80.6667 67.0091 80.7201 67.3711 80.7227C67.7331 80.7201 68.0534 80.6667 68.332 80.5625C68.6133 80.4583 68.8333 80.3099 68.9922 80.1172C69.151 79.9245 69.2305 79.7018 69.2305 79.4492C69.2305 79.1992 69.151 78.9792 68.9922 78.7891C68.8333 78.5964 68.6133 78.4479 68.332 78.3438C68.0508 78.2396 67.7305 78.1875 67.3711 78.1875ZM70.5859 83.2891H64.1797V82.6758H70.5859V83.2891ZM76.293 78.4375H71.7656V77.8359H76.293V78.4375ZM77.4766 83.2148H71.0938V82.6055H77.4766V83.2148ZM74.2539 82.9219H73.5234V80.1367H74.2539V82.9219ZM76.7578 78.5234C76.7578 78.9375 76.7526 79.2852 76.7422 79.5664C76.7318 79.8451 76.7083 80.1758 76.6719 80.5586C76.6354 80.9388 76.5768 81.3503 76.4961 81.793L75.7422 81.7109C75.8281 81.2917 75.8906 80.8958 75.9297 80.5234C75.9688 80.151 75.9922 79.8216 76 79.5352C76.0104 79.2461 76.0156 78.9089 76.0156 78.5234V77.8359H76.7578V78.5234ZM82.25 81.793C82.25 82.1159 82.1875 82.4284 82.0625 82.7305C81.9401 83.0299 81.7591 83.2956 81.5195 83.5273C81.2826 83.7591 80.9948 83.9375 80.6562 84.0625L80.2852 83.5195C80.5768 83.4128 80.8255 83.2682 81.0312 83.0859C81.2396 82.901 81.3984 82.6966 81.5078 82.4727C81.6172 82.2487 81.6719 82.0221 81.6719 81.793V81.457H82.25V81.793ZM82.3906 81.793C82.3906 82.0273 82.4375 82.2604 82.5312 82.4922C82.625 82.7214 82.7656 82.9297 82.9531 83.1172C83.1406 83.3047 83.3724 83.4544 83.6484 83.5664L83.3438 84.1211C83.0078 83.9935 82.7279 83.8086 82.5039 83.5664C82.2826 83.3242 82.1185 83.0508 82.0117 82.7461C81.9076 82.4414 81.8555 82.1237 81.8555 81.793V81.457H82.3906V81.793ZM84.8203 81.793C84.8203 82.0951 84.7656 82.3997 84.6562 82.707C84.5495 83.0117 84.3854 83.2891 84.1641 83.5391C83.9427 83.7917 83.6693 83.9857 83.3438 84.1211L83.0312 83.5664C83.2995 83.444 83.5273 83.2839 83.7148 83.0859C83.9049 82.8854 84.0456 82.6719 84.1367 82.4453C84.2305 82.2188 84.2773 82.0013 84.2773 81.793V81.457H84.8203V81.793ZM85.0078 81.793C85.0078 82.0378 85.0612 82.2734 85.168 82.5C85.2747 82.724 85.4323 82.9258 85.6406 83.1055C85.8516 83.2852 86.1029 83.4232 86.3945 83.5195L86.0312 84.0625C85.6875 83.9427 85.3958 83.7695 85.1562 83.543C84.9167 83.3164 84.7357 83.0534 84.6133 82.7539C84.4909 82.4518 84.4297 82.1315 84.4297 81.793V81.457H85.0078V81.793ZM85.7656 81.1523H85.0273V77.168H85.7656V81.1523ZM81.9688 77.5586C82.3229 77.5586 82.6406 77.6289 82.9219 77.7695C83.2057 77.9076 83.4284 78.1029 83.5898 78.3555C83.7513 78.6055 83.832 78.8919 83.832 79.2148C83.832 79.5299 83.7513 79.8125 83.5898 80.0625C83.4284 80.3125 83.2057 80.5065 82.9219 80.6445C82.6406 80.7826 82.3229 80.8516 81.9688 80.8516C81.6146 80.8516 81.2956 80.7826 81.0117 80.6445C80.7305 80.5065 80.5091 80.3125 80.3477 80.0625C80.1862 79.8125 80.1055 79.5299 80.1055 79.2148C80.1055 78.8919 80.1862 78.6055 80.3477 78.3555C80.5091 78.1029 80.7305 77.9076 81.0117 77.7695C81.2956 77.6289 81.6146 77.5586 81.9688 77.5586ZM81.9688 78.1875C81.75 78.1823 81.5534 78.2227 81.3789 78.3086C81.207 78.3945 81.0729 78.5169 80.9766 78.6758C80.8802 78.832 80.832 79.0117 80.832 79.2148C80.832 79.4102 80.8802 79.5859 80.9766 79.7422C81.0729 79.8958 81.207 80.0156 81.3789 80.1016C81.5534 80.1875 81.75 80.2331 81.9688 80.2383C82.1875 80.2331 82.3815 80.1875 82.5508 80.1016C82.7227 80.0156 82.8568 79.8958 82.9531 79.7422C83.0521 79.5859 83.1016 79.4102 83.1016 79.2148C83.1016 79.0117 83.0534 78.832 82.957 78.6758C82.8607 78.5169 82.7266 78.3945 82.5547 78.3086C82.3828 78.2227 82.1875 78.1823 81.9688 78.1875ZM88.3984 82.1055H91.6875V81.3633H92.4297V84.0742H87.6641V81.3633H88.3984V82.1055ZM91.6875 83.4844V82.6797H88.3984V83.4844H91.6875ZM93.2578 80.9141H86.875V80.3125H93.2578V80.9141ZM90.3281 77.5352C90.3281 77.9258 90.2005 78.2865 89.9453 78.6172C89.6927 78.9453 89.3503 79.2188 88.918 79.4375C88.4883 79.6562 88.0156 79.8034 87.5 79.8789L87.2227 79.2891C87.6706 79.2292 88.0833 79.1133 88.4609 78.9414C88.8385 78.7695 89.1367 78.5612 89.3555 78.3164C89.5768 78.069 89.6875 77.8086 89.6875 77.5352V77.2344H90.3281V77.5352ZM90.4492 77.5352C90.4492 77.8034 90.5599 78.0612 90.7812 78.3086C91.0026 78.5534 91.3021 78.7643 91.6797 78.9414C92.0599 79.1185 92.4701 79.2344 92.9102 79.2891L92.6406 79.8789C92.1224 79.8034 91.6471 79.6549 91.2148 79.4336C90.7852 79.2122 90.4427 78.9375 90.1875 78.6094C89.9349 78.2786 89.8086 77.9206 89.8086 77.5352V77.2344H90.4492V77.5352ZM99.5977 84.1602H98.8633V77.1602H99.5977V84.1602ZM94.9492 82.1836H94.2188V77.8438H94.9492V82.1836ZM94.8047 81.7461C95.3672 81.7461 95.9284 81.7214 96.4883 81.6719C97.0508 81.6198 97.6133 81.5352 98.1758 81.418L98.2734 82.043C97.6849 82.1628 97.1068 82.25 96.5391 82.3047C95.974 82.3568 95.3958 82.3828 94.8047 82.3828H94.2188V81.7461H94.8047ZM106.156 84.1797H105.418V77.1602H106.156V84.1797ZM107.285 80.4883H105.988V79.875H107.285V80.4883ZM101.566 81.8242C102.228 81.8242 102.806 81.8073 103.301 81.7734C103.796 81.737 104.294 81.6732 104.797 81.582L104.887 82.2148C104.376 82.306 103.871 82.3672 103.371 82.3984C102.874 82.4271 102.272 82.4414 101.566 82.4414H101V81.8242H101.566ZM104.273 78.4414H101.738V82.1133H101V77.832H104.273V78.4414ZM108.414 83.5547C108.315 83.5547 108.223 83.5286 108.137 83.4766C108.051 83.4245 107.983 83.3568 107.934 83.2734C107.887 83.1875 107.863 83.0951 107.863 82.9961C107.863 82.8997 107.887 82.8086 107.934 82.7227C107.983 82.6367 108.051 82.5703 108.137 82.5234C108.223 82.474 108.315 82.4492 108.414 82.4492C108.51 82.4492 108.602 82.474 108.688 82.5234C108.773 82.5703 108.841 82.6367 108.891 82.7227C108.94 82.8086 108.965 82.8997 108.965 82.9961C108.965 83.0951 108.94 83.1875 108.891 83.2734C108.841 83.3568 108.773 83.4245 108.688 83.4766C108.602 83.5286 108.51 83.5547 108.414 83.5547Z" fill="#46434F"/>
    <path d="M19.3359 96.2617H12.9297V95.6484H19.3359V96.2617ZM14.4062 91.9023H17.8438V90.6445H18.5742V94.3242H13.6602V90.6445H14.4062V91.9023ZM17.8438 93.7344V92.4883H14.4062V93.7344H17.8438ZM25.2969 97.1797H24.5625V90.1602H25.2969V97.1797ZM26.4258 93.5195H25.1289V92.8984H26.4258V93.5195ZM20.7031 94.8789C21.401 94.8815 21.9948 94.8672 22.4844 94.8359C22.9766 94.8021 23.474 94.7396 23.9766 94.6484L24.0508 95.2539C23.5352 95.3451 23.0234 95.4089 22.5156 95.4453C22.0104 95.4818 21.4062 95.5013 20.7031 95.5039H20.1367V94.8789H20.7031ZM23.3203 93.3672H20.8711V95.125H20.1367V92.7656H22.5859V91.3984H20.1211V90.793H23.3203V93.3672ZM33.1562 94.7578H26.75V94.1406H33.1562V94.7578ZM30.3008 97.1641H29.5703V94.5156H30.3008V97.1641ZM29.9375 90.4258C30.4297 90.4258 30.8646 90.4896 31.2422 90.6172C31.6198 90.7422 31.9115 90.9232 32.1172 91.1602C32.3255 91.3945 32.4297 91.6706 32.4297 91.9883C32.4297 92.293 32.3255 92.5612 32.1172 92.793C31.9115 93.0247 31.6198 93.2044 31.2422 93.332C30.8646 93.457 30.4297 93.5195 29.9375 93.5195C29.4453 93.5195 29.0104 93.457 28.6328 93.332C28.2578 93.2044 27.9661 93.0247 27.7578 92.793C27.5495 92.5612 27.4453 92.293 27.4453 91.9883C27.4453 91.6706 27.5495 91.3945 27.7578 91.1602C27.9661 90.9232 28.2578 90.7422 28.6328 90.6172C29.0104 90.4896 29.4453 90.4258 29.9375 90.4258ZM29.9375 91.0273C29.5911 91.0273 29.2878 91.0651 29.0273 91.1406C28.7669 91.2161 28.5651 91.3268 28.4219 91.4727C28.2812 91.6185 28.2109 91.7904 28.2109 91.9883C28.2109 92.1784 28.2812 92.3451 28.4219 92.4883C28.5651 92.6289 28.7669 92.7383 29.0273 92.8164C29.2878 92.8919 29.5911 92.9297 29.9375 92.9297C30.2839 92.9297 30.5885 92.8919 30.8516 92.8164C31.1146 92.7383 31.3164 92.6289 31.457 92.4883C31.6003 92.3451 31.6719 92.1784 31.6719 91.9883C31.6719 91.7904 31.6003 91.6185 31.457 91.4727C31.3164 91.3268 31.1146 91.2161 30.8516 91.1406C30.5885 91.0651 30.2839 91.0273 29.9375 91.0273ZM39.5117 97.1797H38.7695V90.1602H39.5117V97.1797ZM38.9766 93.2852H37.3281V92.6758H38.9766V93.2852ZM36.0156 92.1289C36.0156 92.6445 35.9323 93.1471 35.7656 93.6367C35.599 94.1237 35.3659 94.5573 35.0664 94.9375C34.7695 95.3151 34.4271 95.6042 34.0391 95.8047L33.5938 95.2266C33.9453 95.0547 34.2591 94.806 34.5352 94.4805C34.8138 94.1549 35.0299 93.7878 35.1836 93.3789C35.3398 92.9674 35.418 92.5508 35.418 92.1289V91.1875H36.0156V92.1289ZM36.1719 92.1289C36.1719 92.5247 36.2487 92.9193 36.4023 93.3125C36.5586 93.7057 36.7747 94.0586 37.0508 94.3711C37.3268 94.6836 37.6406 94.9167 37.9922 95.0703L37.5547 95.6641C37.1667 95.474 36.8229 95.1966 36.5234 94.832C36.2266 94.4648 35.9948 94.0469 35.8281 93.5781C35.6641 93.1094 35.582 92.6263 35.582 92.1289V91.1875H36.1719V92.1289ZM37.7266 91.4727H33.8711V90.8711H37.7266V91.4727ZM44.7266 93.4492H43.4375V92.8438H44.7266V93.4492ZM46.6094 97.1602H45.8945V90.1602H46.6094V97.1602ZM45.1836 96.8164H44.4805V90.293H45.1836V96.8164ZM42.1758 90.7188C42.4805 90.7188 42.7474 90.819 42.9766 91.0195C43.2057 91.2174 43.3828 91.5026 43.5078 91.875C43.6354 92.2474 43.6992 92.6849 43.6992 93.1875C43.6992 93.6849 43.6354 94.1198 43.5078 94.4922C43.3828 94.8646 43.2057 95.1523 42.9766 95.3555C42.7474 95.556 42.4805 95.6576 42.1758 95.6602C41.8737 95.6576 41.6081 95.556 41.3789 95.3555C41.1497 95.1523 40.9727 94.8646 40.8477 94.4922C40.7253 94.1198 40.6641 93.6849 40.6641 93.1875C40.6641 92.6849 40.7253 92.2474 40.8477 91.875C40.9727 91.5026 41.1497 91.2174 41.3789 91.0195C41.6081 90.819 41.8737 90.7188 42.1758 90.7188ZM42.1758 91.4219C42.0039 91.4193 41.8568 91.4883 41.7344 91.6289C41.612 91.7695 41.5182 91.9727 41.4531 92.2383C41.388 92.5013 41.3555 92.8177 41.3555 93.1875C41.3555 93.5521 41.388 93.8672 41.4531 94.1328C41.5182 94.3984 41.6133 94.6016 41.7383 94.7422C41.8633 94.8802 42.0091 94.9492 42.1758 94.9492C42.3451 94.9492 42.4922 94.8802 42.6172 94.7422C42.7422 94.6016 42.8385 94.3984 42.9062 94.1328C42.974 93.8672 43.0078 93.5521 43.0078 93.1875C43.0078 92.8177 42.974 92.5013 42.9062 92.2383C42.8385 91.9727 42.7422 91.7695 42.6172 91.6289C42.4922 91.4883 42.3451 91.4193 42.1758 91.4219ZM52.9727 93.0898H51.0391V92.4922H52.9727V93.0898ZM49.8828 91.9414C49.8828 92.4779 49.8021 92.9961 49.6406 93.4961C49.4792 93.9935 49.2513 94.4349 48.957 94.8203C48.6628 95.2057 48.3216 95.5013 47.9336 95.707L47.4609 95.1055C47.8177 94.9362 48.1328 94.6862 48.4062 94.3555C48.6823 94.0221 48.8958 93.6445 49.0469 93.2227C49.1979 92.8008 49.2734 92.3737 49.2734 91.9414V90.7422H49.8828V91.9414ZM50.0273 91.9414C50.0273 92.3711 50.1016 92.7891 50.25 93.1953C50.401 93.599 50.6107 93.9583 50.8789 94.2734C51.1497 94.5859 51.4596 94.8216 51.8086 94.9805L51.3633 95.582C50.9727 95.3815 50.6315 95.0977 50.3398 94.7305C50.0508 94.3607 49.8255 93.9362 49.6641 93.457C49.5052 92.9753 49.4258 92.4701 49.4258 91.9414V90.7422H50.0273V91.9414ZM53.3398 97.1797H52.6016V90.1602H53.3398V97.1797ZM60.0039 90.8711C60.0039 91.6211 59.9102 92.3034 59.7227 92.918C59.5378 93.5326 59.2109 94.1042 58.7422 94.6328C58.276 95.1615 57.6328 95.6302 56.8125 96.0391L56.4023 95.4727C57.1237 95.1211 57.6953 94.7201 58.1172 94.2695C58.5417 93.8164 58.8424 93.3216 59.0195 92.7852C59.1966 92.2487 59.2852 91.6406 59.2852 90.9609V90.8711H60.0039ZM59.7227 91.4766H56.8086V90.8711H59.7227V91.4766ZM56.5586 93.4258L56.4492 92.7852L59.2188 92.6055V93.1758L56.5586 93.4258ZM61.8203 97.1562H61.082V90.1602H61.8203V97.1562ZM62.9062 93.5742H61.6289V92.957H62.9062V93.5742ZM66.2344 95.3203H63.5195V90.9492H66.2344V95.3203ZM64.2148 94.7305H65.5391V91.5391H64.2148V94.7305ZM69.3047 97.1602H68.5898V90.1602H69.3047V97.1602ZM67.4844 93.3789H65.8711V92.7734H67.4844V93.3789ZM67.8789 96.8164H67.1758V90.293H67.8789V96.8164ZM75.6484 97.1797H74.9141V90.1602H75.6484V97.1797ZM76.7773 93.5195H75.4805V92.8984H76.7773V93.5195ZM71.0547 94.8789C71.7526 94.8815 72.3464 94.8672 72.8359 94.8359C73.3281 94.8021 73.8255 94.7396 74.3281 94.6484L74.4023 95.2539C73.8867 95.3451 73.375 95.4089 72.8672 95.4453C72.362 95.4818 71.7578 95.5013 71.0547 95.5039H70.4883V94.8789H71.0547ZM73.6719 93.3672H71.2227V95.125H70.4883V92.7656H72.9375V91.3984H70.4727V90.793H73.6719V93.3672ZM84.3555 92.4336H82.8438V91.8164H84.3555V92.4336ZM84.8906 93.9727H84.1562V90.1602H84.8906V93.9727ZM81.0742 95.0938H84.1562V94.2891H84.8906V97.0742H80.332V94.2891H81.0742V95.0938ZM84.1562 96.4727V95.6758H81.0742V96.4727H84.1562ZM81.4258 91.2539C81.4258 91.681 81.3451 92.0833 81.1836 92.4609C81.0247 92.8385 80.7969 93.1693 80.5 93.4531C80.2031 93.737 79.8555 93.9505 79.457 94.0938L79.0703 93.5078C79.4219 93.3828 79.7292 93.2044 79.9922 92.9727C80.2578 92.7409 80.4609 92.4766 80.6016 92.1797C80.7448 91.8828 80.8164 91.5742 80.8164 91.2539V90.707H81.4258V91.2539ZM81.5664 91.2578C81.5664 91.5469 81.6341 91.8307 81.7695 92.1094C81.9076 92.3854 82.1029 92.6341 82.3555 92.8555C82.6107 93.0768 82.9102 93.2461 83.2539 93.3633L82.875 93.9375C82.4818 93.7943 82.1419 93.5885 81.8555 93.3203C81.569 93.0521 81.349 92.7409 81.1953 92.3867C81.0417 92.0299 80.9648 91.6536 80.9648 91.2578V90.707H81.5664V91.2578ZM83.0742 91.1602H79.293V90.5508H83.0742V91.1602ZM91.2734 91.1758H86.7773V90.5742H91.2734V91.1758ZM92.3828 93.9531H85.9766V93.3398H92.3828V93.9531ZM91.5703 91.1367C91.5703 91.582 91.5573 91.9883 91.5312 92.3555C91.5052 92.7201 91.4427 93.1315 91.3438 93.5898L90.6133 93.5273C90.681 93.207 90.7305 92.9076 90.7617 92.6289C90.793 92.3503 90.8125 92.1055 90.8203 91.8945C90.8281 91.6836 90.832 91.431 90.832 91.1367V90.5742H91.5703V91.1367ZM91.7773 97.0117H86.8164V96.4023H91.7773V97.0117ZM87.5508 96.4844H86.8164V94.6797H87.5508V96.4844ZM97.4883 94.9961H96.75V93.332H97.4883V94.9961ZM100.703 95.4531H99.9492V90.168H100.703V95.4531ZM100.871 97.0234H95.8164V96.4102H100.871V97.0234ZM96.5625 96.5859H95.8164V94.8789H96.5625V96.5859ZM94.7969 92.8984C95.3698 92.8958 95.8932 92.8893 96.3672 92.8789C96.8411 92.8685 97.3411 92.8464 97.8672 92.8125C98.3958 92.7786 98.8932 92.7305 99.3594 92.668L99.4141 93.1992C98.7266 93.319 98.0039 93.3997 97.2461 93.4414C96.4909 93.4805 95.707 93.5 94.8945 93.5L94.7969 92.8984ZM100.129 94.5391H98.4648V93.9453H100.129V94.5391ZM98.4648 91.1641H95.4258V90.5664H98.4648V91.1641ZM98.7461 90.8359C98.7461 91.1641 98.7357 91.4974 98.7148 91.8359C98.694 92.1745 98.6406 92.5664 98.5547 93.0117L97.8242 92.957C97.9049 92.5143 97.9557 92.1302 97.9766 91.8047C97.9974 91.4766 98.0078 91.1536 98.0078 90.8359V90.5664H98.7461V90.8359ZM107.258 95.4062H106.52V90.168H107.258V95.4062ZM108.277 93.0352H107.031V92.4219H108.277V93.0352ZM105.934 91.5781H101.766V90.9844H105.934V91.5781ZM103.852 91.918C104.185 91.918 104.479 91.9727 104.734 92.082C104.992 92.1914 105.193 92.3464 105.336 92.5469C105.479 92.7474 105.551 92.9792 105.551 93.2422C105.551 93.5026 105.479 93.7318 105.336 93.9297C105.193 94.125 104.992 94.2773 104.734 94.3867C104.479 94.4961 104.185 94.5508 103.852 94.5508C103.518 94.5508 103.221 94.4961 102.961 94.3867C102.703 94.2773 102.503 94.125 102.359 93.9297C102.219 93.7318 102.148 93.5026 102.148 93.2422C102.148 92.9792 102.219 92.7474 102.359 92.5469C102.503 92.3464 102.703 92.1914 102.961 92.082C103.221 91.9727 103.518 91.918 103.852 91.918ZM103.852 92.4961C103.656 92.4961 103.483 92.526 103.332 92.5859C103.181 92.6432 103.065 92.7292 102.984 92.8438C102.904 92.9583 102.863 93.0911 102.863 93.2422C102.863 93.3932 102.904 93.5234 102.984 93.6328C103.065 93.7422 103.181 93.8268 103.332 93.8867C103.483 93.944 103.656 93.9727 103.852 93.9727C104.047 93.9727 104.22 93.944 104.371 93.8867C104.525 93.8268 104.643 93.7422 104.727 93.6328C104.81 93.5234 104.852 93.3932 104.852 93.2422C104.852 93.0911 104.81 92.9583 104.727 92.8438C104.643 92.7292 104.525 92.6432 104.371 92.5859C104.22 92.526 104.047 92.4961 103.852 92.4961ZM104.223 91.2852H103.484V90.1641H104.223V91.2852ZM107.555 97.0234H102.824V96.4102H107.555V97.0234ZM103.559 96.6641H102.824V94.9961H103.559V96.6641ZM111.863 90.2773C112.389 90.2773 112.839 90.3242 113.211 90.418C113.583 90.5091 113.867 90.6445 114.062 90.8242C114.26 91.0039 114.359 91.2214 114.359 91.4766C114.359 91.737 114.26 91.9583 114.062 92.1406C113.867 92.3203 113.583 92.457 113.211 92.5508C112.839 92.6445 112.389 92.694 111.863 92.6992C111.337 92.694 110.887 92.6445 110.512 92.5508C110.139 92.457 109.853 92.3203 109.652 92.1406C109.454 91.9583 109.355 91.737 109.355 91.4766C109.355 91.2214 109.454 91.0039 109.652 90.8242C109.853 90.6445 110.139 90.5091 110.512 90.418C110.887 90.3242 111.337 90.2773 111.863 90.2773ZM111.863 90.8281C111.493 90.8281 111.178 90.8529 110.918 90.9023C110.66 90.9518 110.465 91.026 110.332 91.125C110.199 91.224 110.133 91.3411 110.133 91.4766C110.133 91.625 110.198 91.7487 110.328 91.8477C110.458 91.944 110.652 92.0169 110.91 92.0664C111.168 92.1159 111.486 92.1406 111.863 92.1406C112.241 92.1406 112.559 92.1159 112.816 92.0664C113.074 92.0169 113.268 91.9427 113.398 91.8438C113.531 91.7422 113.598 91.6198 113.598 91.4766C113.598 91.3411 113.53 91.2253 113.395 91.1289C113.262 91.0326 113.065 90.9583 112.805 90.9062C112.547 90.8542 112.233 90.8281 111.863 90.8281ZM115.055 93.7188H108.672V93.125H115.055V93.7188ZM114.246 95.8984H110.176V96.6758H109.445V95.3633H113.52V94.8125H109.434V94.2578H114.246V95.8984ZM114.449 97.0938H109.445V96.5195H114.449V97.0938ZM42.1797 101.863H38.0312V101.258H42.1797V101.863ZM40.1094 102.383C40.4245 102.383 40.707 102.452 40.957 102.59C41.2096 102.728 41.4076 102.922 41.5508 103.172C41.694 103.419 41.7656 103.698 41.7656 104.008C41.7656 104.315 41.6927 104.592 41.5469 104.84C41.4036 105.087 41.2057 105.283 40.9531 105.426C40.7005 105.566 40.4193 105.637 40.1094 105.637C39.7969 105.637 39.513 105.566 39.2578 105.426C39.0052 105.283 38.806 105.087 38.6602 104.84C38.5143 104.592 38.4414 104.315 38.4414 104.008C38.4414 103.698 38.5143 103.419 38.6602 103.172C38.806 102.922 39.0039 102.728 39.2539 102.59C39.5065 102.452 39.7917 102.383 40.1094 102.383ZM40.1094 103.012C39.9271 103.012 39.7604 103.055 39.6094 103.141C39.4609 103.227 39.3451 103.345 39.2617 103.496C39.1784 103.647 39.1367 103.818 39.1367 104.008C39.1367 104.203 39.1784 104.378 39.2617 104.531C39.3451 104.682 39.4609 104.798 39.6094 104.879C39.7604 104.96 39.9271 105 40.1094 105C40.2943 105 40.4596 104.96 40.6055 104.879C40.7539 104.798 40.8711 104.682 40.957 104.531C41.043 104.378 41.0859 104.203 41.0859 104.008C41.0859 103.818 41.043 103.647 40.957 103.496C40.8711 103.345 40.7539 103.227 40.6055 103.141C40.4596 103.055 40.2943 103.012 40.1094 103.012ZM40.4727 101.562H39.7305V100.254H40.4727V101.562ZM43.8672 107.16H43.1289V100.16H43.8672V107.16ZM43.6953 103.66H42.0352V103.047H43.6953V103.66ZM47.2148 103.84H46.4766V102.527H47.2148V103.84ZM49.7773 103.84H49.0391V102.527H49.7773V103.84ZM51.3242 104.18H44.9414V103.578H51.3242V104.18ZM48.1289 104.656C48.6341 104.656 49.0664 104.704 49.4258 104.801C49.7878 104.897 50.0651 105.038 50.2578 105.223C50.4505 105.408 50.5469 105.634 50.5469 105.902C50.5469 106.168 50.4505 106.393 50.2578 106.578C50.0651 106.763 49.7878 106.904 49.4258 107C49.0664 107.099 48.6341 107.148 48.1289 107.148C47.6211 107.148 47.1849 107.099 46.8203 107C46.4583 106.904 46.181 106.763 45.9883 106.578C45.7956 106.393 45.6992 106.168 45.6992 105.902C45.6992 105.634 45.7956 105.408 45.9883 105.223C46.181 105.038 46.4596 104.897 46.8242 104.801C47.1888 104.704 47.6237 104.656 48.1289 104.656ZM48.1289 105.223C47.7721 105.223 47.4688 105.249 47.2188 105.301C46.9688 105.353 46.7786 105.431 46.6484 105.535C46.5182 105.637 46.4531 105.759 46.4531 105.902C46.4531 106.046 46.5182 106.168 46.6484 106.27C46.7786 106.371 46.9688 106.448 47.2188 106.5C47.4688 106.555 47.7721 106.582 48.1289 106.582C48.4805 106.582 48.7812 106.555 49.0312 106.5C49.2839 106.448 49.4753 106.371 49.6055 106.27C49.7357 106.168 49.8008 106.046 49.8008 105.902C49.8008 105.759 49.7357 105.637 49.6055 105.535C49.4753 105.431 49.2852 105.353 49.0352 105.301C48.7878 105.249 48.4857 105.223 48.1289 105.223ZM48.1328 100.285C48.6432 100.285 49.0846 100.337 49.457 100.441C49.832 100.546 50.1211 100.697 50.3242 100.895C50.5273 101.09 50.6289 101.326 50.6289 101.602C50.6289 101.87 50.5273 102.103 50.3242 102.301C50.1237 102.496 49.8359 102.646 49.4609 102.75C49.0859 102.852 48.6432 102.902 48.1328 102.902C47.6198 102.902 47.1745 102.852 46.7969 102.75C46.4219 102.646 46.1328 102.496 45.9297 102.301C45.7266 102.103 45.625 101.87 45.625 101.602C45.625 101.326 45.7266 101.09 45.9297 100.895C46.1328 100.697 46.4219 100.546 46.7969 100.441C47.1745 100.337 47.6198 100.285 48.1328 100.285ZM48.1328 100.863C47.7708 100.863 47.4583 100.893 47.1953 100.953C46.9349 101.01 46.7357 101.094 46.5977 101.203C46.4622 101.312 46.3945 101.445 46.3945 101.602C46.3945 101.755 46.4622 101.887 46.5977 101.996C46.7357 102.105 46.9349 102.19 47.1953 102.25C47.4583 102.307 47.7708 102.336 48.1328 102.336C48.4922 102.336 48.8021 102.307 49.0625 102.25C49.3229 102.19 49.5221 102.105 49.6602 101.996C49.7982 101.887 49.8672 101.755 49.8672 101.602C49.8672 101.445 49.7982 101.312 49.6602 101.203C49.5221 101.094 49.3229 101.01 49.0625 100.953C48.8021 100.893 48.4922 100.863 48.1328 100.863ZM55.3125 101.922H51.8398V101.324H55.3125V101.922ZM53.582 102.34C53.8763 102.34 54.138 102.409 54.3672 102.547C54.599 102.682 54.7799 102.872 54.9102 103.117C55.0404 103.362 55.1055 103.642 55.1055 103.957C55.1055 104.27 55.0404 104.549 54.9102 104.797C54.7799 105.042 54.599 105.234 54.3672 105.375C54.138 105.516 53.8763 105.586 53.582 105.586C53.2904 105.586 53.0286 105.516 52.7969 105.375C52.5677 105.234 52.388 105.04 52.2578 104.793C52.1302 104.546 52.0664 104.267 52.0664 103.957C52.0664 103.647 52.1302 103.368 52.2578 103.121C52.388 102.874 52.5677 102.682 52.7969 102.547C53.0286 102.409 53.2904 102.34 53.582 102.34ZM53.582 102.961C53.418 102.961 53.2695 103.004 53.1367 103.09C53.0065 103.173 52.9049 103.29 52.832 103.441C52.7591 103.59 52.7227 103.762 52.7227 103.957C52.7227 104.15 52.7591 104.322 52.832 104.473C52.9076 104.624 53.0104 104.74 53.1406 104.82C53.2708 104.901 53.418 104.941 53.582 104.941C53.7487 104.941 53.8971 104.901 54.0273 104.82C54.1602 104.74 54.2643 104.624 54.3398 104.473C54.4154 104.322 54.4531 104.15 54.4531 103.957C54.4531 103.762 54.4154 103.59 54.3398 103.441C54.2643 103.29 54.1602 103.173 54.0273 103.09C53.8971 103.004 53.7487 102.961 53.582 102.961ZM57.8477 107.16H57.1406V100.16H57.8477V107.16ZM57.375 103.684H56.0938V103.078H57.375V103.684ZM56.3359 106.832H55.6367V100.324H56.3359V106.832ZM53.9531 101.695H53.2188V100.367H53.9531V101.695ZM64.1406 101.152C64.1406 101.556 64.0156 101.927 63.7656 102.266C63.5156 102.604 63.181 102.887 62.7617 103.113C62.3424 103.34 61.8763 103.493 61.3633 103.574L61.0781 102.992C61.5156 102.93 61.9193 102.807 62.2891 102.625C62.6589 102.443 62.9518 102.223 63.168 101.965C63.3841 101.707 63.4922 101.436 63.4922 101.152V100.883H64.1406V101.152ZM64.3359 101.152C64.3359 101.436 64.4427 101.707 64.6562 101.965C64.8724 102.223 65.1654 102.443 65.5352 102.625C65.9076 102.807 66.3125 102.93 66.75 102.992L66.4805 103.574C65.9648 103.493 65.4948 103.341 65.0703 103.117C64.6484 102.893 64.3125 102.611 64.0625 102.27C63.8151 101.928 63.6914 101.556 63.6914 101.152V100.883H64.3359V101.152ZM64.2656 107.164H63.5352V104.52H64.2656V107.164ZM67.1055 104.715H60.7227V104.109H67.1055V104.715ZM66.5078 101.172H61.3125V100.578H66.5078V101.172ZM70.043 101.047C70.043 101.474 69.9609 101.876 69.7969 102.254C69.6328 102.632 69.3997 102.96 69.0977 103.238C68.7956 103.514 68.4388 103.723 68.0273 103.863L67.6602 103.273C68.0195 103.154 68.332 102.98 68.5977 102.754C68.8659 102.527 69.0703 102.267 69.2109 101.973C69.3542 101.676 69.4258 101.367 69.4258 101.047V100.387H70.043V101.047ZM70.1875 101.047C70.1875 101.352 70.2578 101.645 70.3984 101.926C70.5391 102.207 70.7396 102.454 71 102.668C71.263 102.882 71.5716 103.044 71.9258 103.156L71.5703 103.734C71.1615 103.599 70.806 103.401 70.5039 103.141C70.2044 102.878 69.9727 102.566 69.8086 102.207C69.6445 101.845 69.5625 101.458 69.5625 101.047V100.387H70.1875V101.047ZM73.4414 103.922H72.7031V100.16H73.4414V103.922ZM69.5938 105.039H72.707V104.258H73.4414V107.074H68.8594V104.258H69.5938V105.039ZM72.707 106.473V105.625H69.5938V106.473H72.707ZM76.9883 101.941C76.9883 102.493 76.9036 103.022 76.7344 103.527C76.5651 104.03 76.3281 104.474 76.0234 104.859C75.7188 105.242 75.3633 105.533 74.957 105.73L74.4922 105.109C74.8568 104.945 75.181 104.701 75.4648 104.375C75.7513 104.047 75.974 103.671 76.1328 103.246C76.2943 102.819 76.375 102.384 76.375 101.941V100.742H76.9883V101.941ZM77.1211 101.941C77.1211 102.366 77.1992 102.781 77.3555 103.188C77.5143 103.594 77.7344 103.956 78.0156 104.273C78.2995 104.591 78.6185 104.829 78.9727 104.988L78.5273 105.578C78.1341 105.391 77.7826 105.112 77.4727 104.742C77.1654 104.372 76.9271 103.945 76.7578 103.461C76.5885 102.977 76.5039 102.47 76.5039 101.941V100.742H77.1211V101.941ZM80.3516 107.18H79.6055V100.16H80.3516V107.18ZM85.0156 105.812H84.2891V104.105H85.0156V105.812ZM84.6562 100.586C85.151 100.586 85.5951 100.664 85.9883 100.82C86.3815 100.974 86.6875 101.193 86.9062 101.477C87.1276 101.758 87.2383 102.082 87.2383 102.449C87.2383 102.822 87.1276 103.148 86.9062 103.43C86.6875 103.711 86.3815 103.93 85.9883 104.086C85.5951 104.24 85.151 104.316 84.6562 104.316C84.1589 104.316 83.7135 104.24 83.3203 104.086C82.9297 103.93 82.6237 103.711 82.4023 103.43C82.181 103.148 82.0703 102.822 82.0703 102.449C82.0703 102.082 82.181 101.758 82.4023 101.477C82.6237 101.193 82.9297 100.974 83.3203 100.82C83.7135 100.664 84.1589 100.586 84.6562 100.586ZM84.6562 101.188C84.2995 101.188 83.9792 101.24 83.6953 101.344C83.4115 101.448 83.1901 101.596 83.0312 101.789C82.875 101.979 82.7969 102.199 82.7969 102.449C82.7969 102.702 82.875 102.924 83.0312 103.117C83.1901 103.31 83.4102 103.458 83.6914 103.562C83.9727 103.667 84.2943 103.72 84.6562 103.723C85.0182 103.72 85.3385 103.667 85.6172 103.562C85.8984 103.458 86.1185 103.31 86.2773 103.117C86.4362 102.924 86.5156 102.702 86.5156 102.449C86.5156 102.199 86.4362 101.979 86.2773 101.789C86.1185 101.596 85.8984 101.448 85.6172 101.344C85.3359 101.24 85.0156 101.188 84.6562 101.188ZM87.8711 106.289H81.4648V105.676H87.8711V106.289ZM89.1758 106.555C89.0768 106.555 88.9844 106.529 88.8984 106.477C88.8125 106.424 88.7448 106.357 88.6953 106.273C88.6484 106.188 88.625 106.095 88.625 105.996C88.625 105.9 88.6484 105.809 88.6953 105.723C88.7448 105.637 88.8125 105.57 88.8984 105.523C88.9844 105.474 89.0768 105.449 89.1758 105.449C89.2721 105.449 89.3633 105.474 89.4492 105.523C89.5352 105.57 89.6029 105.637 89.6523 105.723C89.7018 105.809 89.7266 105.9 89.7266 105.996C89.7266 106.095 89.7018 106.188 89.6523 106.273C89.6029 106.357 89.5352 106.424 89.4492 106.477C89.3633 106.529 89.2721 106.555 89.1758 106.555Z" fill="#46434F"/>
</svg>
